<?xml version="1.0" encoding="iso-8859-1"?>
<!-- Generator: Adobe Illustrator 16.0.0, SVG Export Plug-In . SVG Version: 6.00 Build 0)  -->
<!DOCTYPE svg PUBLIC "-//W3C//DTD SVG 1.1//EN" "http://www.w3.org/Graphics/SVG/1.1/DTD/svg11.dtd">
<svg version="1.1" id="Capa_1" xmlns="http://www.w3.org/2000/svg" xmlns:xlink="http://www.w3.org/1999/xlink" x="0px" y="0px"
	 width="31.299px" height="31.299px" viewBox="0 0 31.299 31.299" style="enable-background:new 0 0 31.299 31.299;"
	 xml:space="preserve">
<g>
	<path d="M23.56,3.619c-0.199-0.135-0.47-0.104-0.633,0.076c-0.162,0.179-0.169,0.451-0.016,0.639
		c1.488,1.803,2.309,4.087,2.309,6.431c0,1.459-0.07,3.107-0.919,4.213c-1.386,1.805-2.836,2.183-3.81,2.183
		c-1.229,0-2.162-0.585-2.586-1.085c-2.892-3.404,2.36-9.302,2.414-9.36c0.121-0.136,0.158-0.328,0.094-0.498l-0.502-1.338
		c-0.06-0.155-0.191-0.271-0.354-0.306c-0.161-0.033-0.33,0.016-0.446,0.132l-1.631,1.631l0.936-3.425
		c0.046-0.168-0.002-0.349-0.125-0.473l-2.295-2.295c-0.19-0.19-0.499-0.19-0.689,0l-2.295,2.295
		c-0.124,0.124-0.172,0.304-0.125,0.473l0.934,3.426l-1.63-1.631c-0.117-0.116-0.285-0.166-0.447-0.132
		c-0.163,0.035-0.295,0.149-0.354,0.306l-0.503,1.338c-0.064,0.17-0.027,0.361,0.095,0.498c0.053,0.06,5.305,5.956,2.415,9.36
		c-0.425,0.5-1.357,1.085-2.586,1.085c-0.974,0-2.424-0.378-3.81-2.183c-0.849-1.105-0.92-2.754-0.92-4.213
		c0-2.344,0.82-4.628,2.308-6.431c0.154-0.188,0.147-0.461-0.015-0.639C8.211,3.516,7.94,3.484,7.74,3.619
		C3.553,6.442,1.054,11.137,1.054,16.18c0,8.179,6.404,14.82,14.578,15.119c0.006,0,0.012,0,0.018,0c0.006,0,0.012,0,0.018,0
		C23.842,31,30.245,24.359,30.245,16.18C30.245,11.137,27.745,6.442,23.56,3.619z"/>
</g>
<g>
</g>
<g>
</g>
<g>
</g>
<g>
</g>
<g>
</g>
<g>
</g>
<g>
</g>
<g>
</g>
<g>
</g>
<g>
</g>
<g>
</g>
<g>
</g>
<g>
</g>
<g>
</g>
<g>
</g>
</svg>
